# xmcd
#
# Track frame offsets:
# 150
# 22122
# 43235
# 62852
# 83320
# 104095
# 119642
# 139222
# 169775
# 191765
# 213725
# 234055
# 253660
#
# Disc length: 3648 seconds
#
#
# Revision: 7
# Processed by: cddbd v1.5.2PL0 Copyright (c) Steve Scherf et al.
# Submitted via: FreeRIP 2.951 
#
DISCID=c00e3e0d
DTITLE=Various Artist - My Love Is Your Love
DYEAR=1998
DGENRE=Pop
TTITLE0=Whitney Houston - It's Not Right But It's Okay(My Love Is Your Love US CD Version)
TTITLE1=Whitney Houston Featuring Faith Evans And Kelly Price - Heartbreak Hotel(My Love Is Your Love US CD Version)
TTITLE2=Whitney Houston - My Love Is Your Love(My Love Is Your Love US CD Version)
TTITLE3=Whitney Houston And Mariah Carey - When You Believe(From ''The Prince Of Egypt'')(My Love Is Your Love US CD Version)
TTITLE4=Whitney Houston - If I Told You That(My Love Is Your Love US CD Version)
TTITLE5=Whitney Houston Featuring Missy ''Misdemeanor'' Elliott - In My Business(My Love Is Your Love US CD Version)
TTITLE6=Whitney Houston - I Learned From The Best(My Love Is Your Love US CD Version)
TTITLE7=Whitney Houston - Oh Yes(My Love Is Your Love US CD Version)
TTITLE8=Whitney Houston - Get It Back(My Love Is Your Love US CD Version)
TTITLE9=Whitney Houston - Until You Come Back(My Love Is Your Love US CD Version)
TTITLE10=Whitney Houston - I Bow Out(My Love Is Your Love US CD Version)
TTITLE11=Whitney Houston - You'll Never Stand Alone(My Love Is Your Love US CD Version)
TTITLE12=Whitney Houston - I Was Made To Love Him(My Love Is Your Love US CD Version)
EXTD=
EXTT0=
EXTT1=
EXTT2=
EXTT3=
EXTT4=
EXTT5=
EXTT6=
EXTT7=
EXTT8=
EXTT9=
EXTT10=
EXTT11=
EXTT12=
PLAYORDER=
